<svg xmlns="http://www.w3.org/2000/svg" viewBox="0 0 2043 2048" width="2043" height="2048">
  <path d="M 1682 312 L 1611 252 L 1517 189 L 1431 145 L 1356 115 L 1259 87 L 1182 72 L 1086 62 L 990 61 L 924 65 L 813 82 L 722 106 L 627 142 L 548 181 L 460 237 L 399 285 L 334 346 L 280 407 L 233 471 L 197 529 L 159 603 L 131 671 L 106 750 L 77 897 L 70 969 L 69 1036 L 73 1103 L 82 1168 L 98 1250 L 113 1307 L 146 1400 L 169 1449 L 171 1461 L 168 1489 L 88 1777 L 72 1845 L 73 1900 L 81 1915 L 87 1936 L 105 1957 L 128 1969 L 150 1974 L 216 1974 L 260 1966 L 550 1889 L 588 1882 L 615 1885 L 693 1916 L 769 1939 L 820 1951 L 907 1965 L 970 1970 L 1050 1971 L 1124 1967 L 1199 1957 L 1277 1940 L 1357 1916 L 1418 1892 L 1477 1864 L 1556 1818 L 1615 1776 L 1668 1732 L 1725 1676 L 1786 1604 L 1850 1508 L 1895 1420 L 1925 1344 L 1952 1249 L 1974 1128 L 1980 1058 L 1980 973 L 1974 903 L 1950 773 L 1924 684 L 1893 606 L 1850 523 L 1803 450 L 1739 370 Z" fill="#bcbcbc"/>
  <path d="M 1605 383 L 1533 322 L 1461 273 L 1383 231 L 1314 202 L 1235 177 L 1160 161 L 1076 151 L 976 150 L 906 156 L 814 173 L 736 196 L 659 227 L 584 266 L 508 316 L 452 361 L 391 420 L 345 473 L 313 516 L 271 582 L 244 633 L 201 739 L 180 814 L 169 870 L 160 949 L 159 1047 L 171 1156 L 188 1232 L 212 1307 L 234 1360 L 273 1438 L 153 1879 L 605 1760 L 656 1786 L 730 1816 L 798 1837 L 872 1853 L 972 1864 L 1059 1864 L 1166 1852 L 1223 1840 L 1291 1820 L 1399 1775 L 1465 1738 L 1523 1699 L 1579 1654 L 1628 1608 L 1692 1535 L 1735 1475 L 1775 1407 L 1813 1325 L 1837 1257 L 1860 1163 L 1870 1092 L 1874 996 L 1869 912 L 1854 821 L 1830 734 L 1803 664 L 1762 582 L 1720 516 L 1661 441 Z" fill="#ffffff"/>
  <path d="M 1507 490 L 1451 442 L 1389 399 L 1349 376 L 1274 342 L 1211 321 L 1135 304 L 1067 296 L 991 295 L 918 301 L 858 312 L 776 336 L 722 358 L 656 392 L 608 423 L 541 476 L 500 516 L 434 596 L 401 647 L 371 704 L 350 753 L 332 806 L 318 862 L 308 924 L 304 973 L 304 1043 L 310 1107 L 324 1179 L 342 1240 L 366 1300 L 392 1352 L 429 1412 L 359 1675 L 627 1605 L 680 1636 L 736 1663 L 804 1688 L 860 1703 L 922 1714 L 996 1720 L 1059 1719 L 1125 1712 L 1193 1698 L 1258 1678 L 1352 1636 L 1395 1611 L 1447 1575 L 1495 1535 L 1531 1500 L 1573 1452 L 1622 1383 L 1645 1343 L 1679 1270 L 1703 1199 L 1719 1127 L 1727 1063 L 1729 984 L 1723 912 L 1711 846 L 1693 782 L 1663 706 L 1633 649 L 1599 596 L 1555 540 Z" fill="#25D366"/>
  <path d="M 648 647 L 624 676 L 603 712 L 585 771 L 582 839 L 595 898 L 613 945 L 632 981 L 696 1077 L 761 1158 L 842 1239 L 930 1306 L 1011 1351 L 1124 1393 L 1208 1414 L 1251 1417 L 1310 1410 L 1369 1382 L 1402 1357 L 1418 1341 L 1432 1319 L 1444 1281 L 1450 1243 L 1448 1214 L 1430 1199 L 1284 1128 L 1243 1113 L 1232 1113 L 1224 1117 L 1142 1218 L 1129 1225 L 1113 1225 L 1077 1208 L 1063 1205 L 1016 1179 L 959 1141 L 924 1112 L 864 1050 L 821 991 L 801 955 L 799 940 L 804 928 L 844 884 L 860 861 L 872 833 L 872 824 L 805 658 L 792 633 L 781 621 L 767 614 L 700 613 L 675 623 Z" fill="#ffffff"/>
</svg>
